<svg width="36" height="41" viewBox="0 0 36 41" fill="none" xmlns="http://www.w3.org/2000/svg">
<path fill-rule="evenodd" clip-rule="evenodd" d="M29.8924 1.14924L5.00771 0.514349C3.44178 0.387452 0.310059 1.04759 0.310059 4.70414V37.8415C0.310059 38.307 0.513231 39.3396 1.32578 39.7459C2.3415 40.2538 2.97626 39.619 3.61116 38.8572C4.11888 38.2477 22.19 15.496 31.162 4.19628C31.7968 3.20759 32.4317 1.21393 29.8924 1.14924ZM11.2283 19.0499C13.8928 19.0499 16.0528 16.435 16.0528 13.2095C16.0528 9.984 13.8928 7.36924 11.2283 7.36924C8.56371 7.36924 6.40357 9.984 6.40357 13.2095C6.40357 16.435 8.56371 19.0499 11.2283 19.0499Z" fill="url(#paint0_linear_494_29169)"/>
<path d="M32.3146 30.7825L23.1695 19.9629L16.6006 28.3352C19.005 31.1688 23.994 37.0423 24.7152 37.8666C25.6169 38.8971 28.5793 40.9579 31.7995 37.8666C34.3755 35.3936 33.2163 32.1134 32.3146 30.7825Z" fill="url(#paint1_linear_494_29169)"/>
<path d="M34.632 30.7825L25.4871 19.9629L18.918 28.3352C21.3224 31.1688 26.3113 37.0423 27.0326 37.8666C27.9342 38.8971 30.8967 40.9579 34.1168 37.8666C36.6928 35.3936 35.5337 32.1134 34.632 30.7825Z" fill="url(#paint2_linear_494_29169)"/>
<path d="M23.1697 19.9629H25.488L18.9191 28.3352H16.6006L23.1697 19.9629Z" fill="url(#paint3_linear_494_29169)"/>
<path fill-rule="evenodd" clip-rule="evenodd" d="M32.1859 1.15857L6.94045 0.514574C5.3519 0.385746 2.1748 1.05554 2.1748 4.76505V38.3827C2.1748 38.8549 2.38087 39.9025 3.20515 40.3148C4.23563 40.83 4.87963 40.186 5.52363 39.4132C6.03894 38.7948 24.3719 15.7133 33.474 4.24988C34.118 3.24671 34.7621 1.22423 32.1859 1.15857ZM13.2519 19.3199C15.9551 19.3199 18.1465 16.6672 18.1465 13.395C18.1465 10.1227 15.9551 7.47001 13.2519 7.47001C10.5487 7.47001 8.35742 10.1227 8.35742 13.395C8.35742 16.6672 10.5487 19.3199 13.2519 19.3199Z" fill="url(#paint4_linear_494_29169)"/>
<defs>
<linearGradient id="paint0_linear_494_29169" x1="6.53129" y1="-0.120409" x2="2.21447" y2="35.6831" gradientUnits="userSpaceOnUse">
<stop stop-color="#70CDE7"/>
<stop offset="1" stop-color="#579CC3"/>
</linearGradient>
<linearGradient id="paint1_linear_494_29169" x1="19.4344" y1="27.5623" x2="30.3826" y2="39.4123" gradientUnits="userSpaceOnUse">
<stop stop-color="#2E3085"/>
<stop offset="1" stop-color="#48A1D9"/>
</linearGradient>
<linearGradient id="paint2_linear_494_29169" x1="21.7518" y1="27.5623" x2="32.7" y2="39.4122" gradientUnits="userSpaceOnUse">
<stop stop-color="#1E4396"/>
<stop offset="1" stop-color="#3EB5E7"/>
</linearGradient>
<linearGradient id="paint3_linear_494_29169" x1="21.4952" y1="25.3727" x2="19.6919" y2="23.827" gradientUnits="userSpaceOnUse">
<stop stop-color="#202475"/>
<stop offset="1" stop-color="#3B53A0"/>
</linearGradient>
<linearGradient id="paint4_linear_494_29169" x1="3.33398" y1="1.67375" x2="21.8817" y2="18.9335" gradientUnits="userSpaceOnUse">
<stop stop-color="#1E4396"/>
<stop offset="1" stop-color="#3EB5E7"/>
</linearGradient>
</defs>
</svg>
