<svg width="48" height="48" viewBox="0 0 48 48" fill="none" xmlns="http://www.w3.org/2000/svg">
<path d="M0 9.6C0 4.29807 4.29807 0 9.6 0H38.4C43.7019 0 48 4.29807 48 9.6V38.4C48 43.7019 43.7019 48 38.4 48H9.6C4.29807 48 0 43.7019 0 38.4V9.6Z" fill="url(#paint0_linear_168_5347)"/>
<path d="M35.805 27.968V23.2393L36.9811 23.0989V28.3893L35.5001 29.9812L34.7161 29.0916L35.805 27.968Z" fill="#C9E0FF"/>
<circle cx="34.4534" cy="30.3731" r="2.0037" fill="#80B6FF"/>
<rect x="11.5422" y="10.3364" width="1.21964" height="10.6283" fill="#C9E0FF"/>
<circle cx="12.1524" cy="9.11678" r="1.91658" fill="#80B6FF"/>
<path d="M17.8885 34.9903C16.7734 31.192 18.7016 29.7488 19.805 29.502H28.691C31.0606 30.3383 30.9561 32.8415 30.6076 33.9885C30.2243 36.7066 28.8507 38.8671 28.2119 39.6076C27.2362 40.7227 24.582 40.8563 23.3769 40.7837C21.077 40.5746 20.0374 39.5931 19.805 39.1284L17.8885 34.9903Z" fill="white"/>
<path d="M11.9345 19.5708H13.3719H14.0253V23.6218H11.9345C11.2609 23.6218 10.7148 23.0757 10.7148 22.4021V20.7904C10.7148 20.1169 11.2609 19.5708 11.9345 19.5708Z" fill="#80B6FF"/>
<path d="M36.5445 19.5708H35.1071H34.4537V23.6218H36.5445C37.2181 23.6218 37.7642 23.0757 37.7642 22.4021V20.7904C37.7642 20.1169 37.2181 19.5708 36.5445 19.5708Z" fill="#80B6FF"/>
<path d="M14.8533 27.2367C12.0655 22.3146 13.5901 15.8679 14.8533 13.7335C20.3852 9.1163 32.1896 11.0765 33.4964 14.1691C36.2406 20.0931 34.6725 25.7557 33.2786 27.498C25.3509 31.8539 17.4668 29.5453 14.8533 27.2367Z" fill="white"/>
<path d="M27.9635 16.6523H20.4714C17.9936 16.6523 15.9849 18.661 15.9849 21.1389C15.9849 23.6167 17.9936 25.6254 20.4714 25.6254H27.9635C30.4414 25.6254 32.45 23.6167 32.45 21.1389C32.45 18.661 30.4414 16.6523 27.9635 16.6523Z" fill="url(#paint1_linear_168_5347)"/>
<circle cx="20.3413" cy="21.1389" r="1.65523" fill="#D3E4FF"/>
<circle cx="28.0944" cy="21.1389" r="1.65523" fill="#D3E4FF"/>
<path fill-rule="evenodd" clip-rule="evenodd" d="M26.3766 31.4637L22.0218 31.3526C21.7478 31.3304 21.1997 31.4459 21.1997 32.0858V37.8849C21.1997 37.9663 21.2353 38.147 21.3775 38.2181C21.5552 38.307 21.6663 38.1959 21.7774 38.0626C21.8663 37.956 25.0287 33.9744 26.5988 31.9969C26.7099 31.8239 26.821 31.475 26.3766 31.4637ZM23.1104 34.5963C23.5767 34.5963 23.9547 34.1387 23.9547 33.5743C23.9547 33.0098 23.5767 32.5522 23.1104 32.5522C22.6441 32.5522 22.2661 33.0098 22.2661 33.5743C22.2661 34.1387 22.6441 34.5963 23.1104 34.5963Z" fill="#2E3085"/>
<path d="M26.7998 36.6495L25.1994 34.7561L24.0498 36.2213C24.4706 36.7171 25.3436 37.745 25.4699 37.8893C25.6277 38.0696 26.1461 38.4302 26.7096 37.8893C27.1604 37.4565 26.9576 36.8824 26.7998 36.6495Z" fill="#2E3085"/>
<path d="M27.205 36.6495L26.3268 35.6105C25.9541 35.1696 25.2705 35.182 24.9141 35.6362C24.6469 35.9768 24.6561 36.4582 24.9363 36.788C25.3419 37.2654 25.7877 37.7893 25.8751 37.8893C26.0329 38.0696 26.5514 38.4302 27.1149 37.8893C27.5657 37.4565 27.3628 36.8824 27.205 36.6495Z" fill="url(#paint2_linear_168_5347)"/>
<path d="M25.1994 33.3804H25.6051L24.4555 34.8455H24.0498L25.1994 33.3804Z" fill="#202475"/>
<path fill-rule="evenodd" clip-rule="evenodd" d="M26.7774 31.4653L22.3594 31.3526C22.0814 31.3301 21.5254 31.4473 21.5254 32.0965V37.9796C21.5254 38.0622 21.5615 38.2456 21.7057 38.3177C21.886 38.4079 21.9987 38.2952 22.1114 38.1599C22.2016 38.0517 25.4099 34.0124 27.0028 32.0063C27.1155 31.8308 27.2282 31.4768 26.7774 31.4653ZM23.4639 34.6436C23.9369 34.6436 24.3204 34.1794 24.3204 33.6067C24.3204 33.0341 23.9369 32.5699 23.4639 32.5699C22.9908 32.5699 22.6074 33.0341 22.6074 33.6067C22.6074 34.1794 22.9908 34.6436 23.4639 34.6436Z" fill="url(#paint3_linear_168_5347)"/>
<path d="M25.1994 34.7561H25.6051L24.4555 36.2213H24.0498L25.1994 34.7561Z" fill="#202475"/>
<defs>
<linearGradient id="paint0_linear_168_5347" x1="24" y1="48" x2="24" y2="0" gradientUnits="userSpaceOnUse">
<stop stop-color="#063376"/>
<stop offset="1" stop-color="#57A2ED"/>
</linearGradient>
<linearGradient id="paint1_linear_168_5347" x1="24.2175" y1="16.6523" x2="24.2175" y2="25.6254" gradientUnits="userSpaceOnUse">
<stop stop-color="#063376"/>
<stop offset="1" stop-color="#57A2ED"/>
</linearGradient>
<linearGradient id="paint2_linear_168_5347" x1="25.9226" y1="34.7561" x2="25.9226" y2="38.175" gradientUnits="userSpaceOnUse">
<stop stop-color="#063376"/>
<stop offset="1" stop-color="#57A2ED"/>
</linearGradient>
<linearGradient id="paint3_linear_168_5347" x1="24.3145" y1="31.3501" x2="24.3145" y2="38.3501" gradientUnits="userSpaceOnUse">
<stop stop-color="#063376"/>
<stop offset="1" stop-color="#57A2ED"/>
</linearGradient>
</defs>
</svg>
