<svg width="24" height="24" viewBox="0 0 24 24" fill="none" xmlns="http://www.w3.org/2000/svg">
<circle cx="12" cy="12" r="12" fill="url(#paint0_radial_50_4047)"/>
<path d="M17.1758 13.8894V11.6377L17.7358 11.5708V14.0901L17.0306 14.8481L16.6572 14.4245L17.1758 13.8894Z" fill="#C9E0FF"/>
<circle cx="16.5332" cy="15.035" r="0.954145" fill="#80B6FF"/>
<rect x="5.62207" y="5.49341" width="0.580784" height="5.06112" fill="#C9E0FF"/>
<circle cx="5.91315" cy="4.91266" r="0.91266" fill="#80B6FF"/>
<path d="M8.64425 17.2334C8.11324 15.4247 9.03143 14.7374 9.55691 14.6199H13.7883C14.9167 15.0181 14.8669 16.2101 14.701 16.7563C14.5185 18.0506 13.8644 19.0795 13.5602 19.4321C13.0955 19.9631 11.8316 20.0267 11.2578 19.9921C10.1626 19.8926 9.66753 19.4252 9.55691 19.2039L8.64425 17.2334Z" fill="white"/>
<path d="M5.8093 9.89087H6.49379H6.80493V11.8199H5.8093C5.48854 11.8199 5.22852 11.5599 5.22852 11.2391V10.4717C5.22852 10.1509 5.48854 9.89087 5.8093 9.89087Z" fill="#80B6FF"/>
<path d="M17.5276 9.89087H16.8431H16.532V11.8199H17.5276C17.8484 11.8199 18.1084 11.5599 18.1084 11.2391V10.4717C18.1084 10.1509 17.8484 9.89087 17.5276 9.89087Z" fill="#80B6FF"/>
<path d="M7.19958 13.5414C5.87207 11.1976 6.59805 8.1277 7.19957 7.11131C9.83384 4.91264 15.455 5.84605 16.0773 7.31872C17.384 10.1397 16.6373 12.8362 15.9736 13.6659C12.1985 15.7401 8.44411 14.6407 7.19958 13.5414Z" fill="white"/>
<path d="M13.4414 8.50098H9.87376C8.69383 8.50098 7.7373 9.4575 7.7373 10.6374C7.7373 11.8174 8.69383 12.7739 9.87376 12.7739H13.4414C14.6214 12.7739 15.5779 11.8174 15.5779 10.6374C15.5779 9.4575 14.6214 8.50098 13.4414 8.50098Z" fill="url(#paint1_linear_50_4047)"/>
<circle cx="9.81262" cy="10.6376" r="0.788207" fill="#D3E4FF"/>
<circle cx="13.504" cy="10.6376" r="0.788207" fill="#D3E4FF"/>
<path fill-rule="evenodd" clip-rule="evenodd" d="M12.6869 15.5541L10.6132 15.5012C10.4827 15.4906 10.2217 15.5456 10.2217 15.8503V18.6118C10.2217 18.6506 10.2386 18.7366 10.3063 18.7705C10.391 18.8128 10.4439 18.7599 10.4968 18.6964C10.5391 18.6457 12.045 16.7497 12.7927 15.808C12.8456 15.7256 12.8985 15.5595 12.6869 15.5541ZM11.1315 17.0458C11.3536 17.0458 11.5336 16.8279 11.5336 16.5591C11.5336 16.2903 11.3536 16.0724 11.1315 16.0724C10.9095 16.0724 10.7295 16.2903 10.7295 16.5591C10.7295 16.8279 10.9095 17.0458 11.1315 17.0458Z" fill="#2E3085"/>
<path d="M12.8886 18.0235L12.1265 17.1218L11.5791 17.8195C11.7795 18.0557 12.1952 18.5451 12.2553 18.6138C12.3305 18.6997 12.5773 18.8714 12.8457 18.6138C13.0603 18.4077 12.9638 18.1344 12.8886 18.0235Z" fill="#2E3085"/>
<path d="M13.081 18.0235L12.6628 17.5287C12.4853 17.3187 12.1598 17.3246 11.9901 17.5409C11.8628 17.7031 11.8672 17.9323 12.0006 18.0894C12.1938 18.3167 12.4061 18.5662 12.4477 18.6138C12.5228 18.6997 12.7697 18.8714 13.0381 18.6138C13.2527 18.4077 13.1561 18.1344 13.081 18.0235Z" fill="url(#paint2_linear_50_4047)"/>
<path d="M12.1265 16.4667H12.3197L11.7723 17.1644H11.5791L12.1265 16.4667Z" fill="#202475"/>
<path fill-rule="evenodd" clip-rule="evenodd" d="M12.8769 15.5549L10.7731 15.5012C10.6407 15.4905 10.376 15.5463 10.376 15.8554V18.6569C10.376 18.6963 10.3931 18.7836 10.4618 18.8179C10.5477 18.8608 10.6014 18.8072 10.655 18.7428C10.698 18.6912 12.2257 16.7678 12.9842 15.8125C13.0379 15.7289 13.0916 15.5604 12.8769 15.5549ZM11.2991 17.0683C11.5243 17.0683 11.707 16.8473 11.707 16.5746C11.707 16.3019 11.5243 16.0808 11.2991 16.0808C11.0738 16.0808 10.8912 16.3019 10.8912 16.5746C10.8912 16.8473 11.0738 17.0683 11.2991 17.0683Z" fill="url(#paint3_linear_50_4047)"/>
<path d="M12.1265 17.1218H12.3197L11.7723 17.8195H11.5791L12.1265 17.1218Z" fill="#202475"/>
<defs>
<radialGradient id="paint0_radial_50_4047" cx="0" cy="0" r="1" gradientUnits="userSpaceOnUse" gradientTransform="translate(10.75 13.75) rotate(45) scale(14.4957)">
<stop stop-color="#57A2ED"/>
<stop offset="1" stop-color="#084298"/>
</radialGradient>
<linearGradient id="paint1_linear_50_4047" x1="11.6576" y1="8.50098" x2="11.6576" y2="12.7739" gradientUnits="userSpaceOnUse">
<stop stop-color="#063376"/>
<stop offset="1" stop-color="#57A2ED"/>
</linearGradient>
<linearGradient id="paint2_linear_50_4047" x1="12.4703" y1="17.1218" x2="12.4703" y2="18.7499" gradientUnits="userSpaceOnUse">
<stop stop-color="#063376"/>
<stop offset="1" stop-color="#57A2ED"/>
</linearGradient>
<linearGradient id="paint3_linear_50_4047" x1="11.7041" y1="15.5" x2="11.7041" y2="18.8333" gradientUnits="userSpaceOnUse">
<stop stop-color="#063376"/>
<stop offset="1" stop-color="#57A2ED"/>
</linearGradient>
</defs>
</svg>
