<svg width="111" height="108" viewBox="0 0 111 108" fill="none" xmlns="http://www.w3.org/2000/svg">
<path d="M106.211 100.84V27.4473H8.35449V100.84C8.35449 104.794 11.5602 108 15.5147 108H99.0506C103.005 108 106.211 104.794 106.211 100.84Z" fill="url(#paint0_linear_248_4685)"/>
<path d="M88.9062 86.5197V72.7959H93.083V86.5197H88.9062Z" fill="white"/>
<path d="M91.293 83.5361H90.6963C88.7191 83.5361 87.1162 85.139 87.1162 87.1162V99.6466C87.1162 101.624 88.7191 103.227 90.6963 103.227H91.293C93.2702 103.227 94.8731 101.624 94.8731 99.6466V87.1162C94.8731 85.139 93.2702 83.5361 91.293 83.5361Z" fill="#9DC6FF"/>
<circle cx="90.6965" cy="54.8947" r="20.2873" fill="#C9E0FF"/>
<circle cx="90.6964" cy="54.8947" r="16.7072" fill="#EEF4FF"/>
<path d="M88.9063 42.9609C84.7793 44.2308 83.4479 45.2528 82.3428 46.541C81.3708 47.6741 80.4763 48.878 79.3594 52.5079" stroke="#084298" stroke-width="3.58011" stroke-linecap="round"/>
<path d="M106.211 16.7071V27.4474H9.54785V16.7071C9.54785 14.0708 11.685 11.9336 14.3213 11.9336H101.437C104.074 11.9336 106.211 14.0708 106.211 16.7071Z" fill="#C9E0FF"/>
<path d="M22.6748 87.7129H72.7964" stroke="white" stroke-width="4.77348" stroke-linecap="round"/>
<rect x="28.6416" y="79.9561" width="9.54696" height="15.5138" rx="4.77348" fill="#83BAF0"/>
<circle cx="99.0498" cy="20.2871" r="2.38674" fill="#084298"/>
<circle cx="90.6963" cy="20.2871" r="2.38674" fill="#57A2ED"/>
<circle cx="82.3428" cy="20.2871" r="2.38674" fill="#57A2ED"/>
<path d="M0 35.9254V5.07182C0 2.27073 2.27073 0 5.07182 0H35.5028C38.3039 0 40.5746 2.27074 40.5746 5.07183V35.9254C40.5746 38.7265 38.3039 40.9972 35.5028 40.9972H5.07182C2.27073 40.9972 0 38.7265 0 35.9254Z" fill="url(#paint1_linear_248_4685)"/>
<path fill-rule="evenodd" clip-rule="evenodd" d="M32.3197 20.2881C32.3197 19.1558 31.7399 18.0236 30.5793 17.3924L16.5639 9.76999C14.3072 8.5437 11.5352 10.1408 11.5352 12.6667V20.2881H32.3197Z" fill="white"/>
<path opacity="0.5" d="M16.5639 30.8052L30.5793 23.1827C31.1054 22.9042 31.5456 22.4873 31.8523 21.977C32.159 21.4668 32.3206 20.8825 32.3197 20.2871H11.5352V27.9085C11.5352 30.4354 14.3072 32.0315 16.5639 30.8052Z" fill="white"/>
<defs>
<linearGradient id="paint0_linear_248_4685" x1="56.9843" y1="108" x2="56.9843" y2="27.4473" gradientUnits="userSpaceOnUse">
<stop stop-color="#063376"/>
<stop offset="1" stop-color="#57A2ED"/>
</linearGradient>
<linearGradient id="paint1_linear_248_4685" x1="20.1636" y1="40.9972" x2="20.1636" y2="0" gradientUnits="userSpaceOnUse">
<stop stop-color="#063376"/>
<stop offset="1" stop-color="#57A2ED"/>
</linearGradient>
</defs>
</svg>
