<svg width="659" height="397" viewBox="0 0 659 397" fill="none" xmlns="http://www.w3.org/2000/svg">
<rect width="659" height="397" rx="16" fill="#E50046" fill-opacity="0.02"/>
<path d="M366.138 132.732C351.372 132.732 336.34 132.132 322.28 128.215C308.483 124.387 295.816 116.96 284.525 108.368C277.133 102.775 270.411 98.3293 260.814 98.9997C251.423 99.4991 242.441 103.006 235.197 109.003C222.988 119.694 224.823 139.489 229.71 153.373C237.049 174.315 259.385 188.887 278.368 198.344C300.297 209.3 324.397 215.651 348.549 219.321C369.72 222.531 396.924 224.878 415.272 211.046C432.121 198.344 436.743 169.34 432.615 149.757C431.614 143.966 428.534 138.74 423.952 135.061C412.114 126.416 394.454 132.185 381.152 132.485C376.212 132.591 371.184 132.697 366.138 132.732Z" fill="#FFF2F6"/>
<path d="M330.008 253.635C365.777 253.635 394.773 251.826 394.773 249.595C394.773 247.364 365.777 245.555 330.008 245.555C294.239 245.555 265.243 247.364 265.243 249.595C265.243 251.826 294.239 253.635 330.008 253.635Z" fill="#FFF2F6"/>
<path d="M410.827 77.7059C411.781 77.7059 412.556 76.9319 412.556 75.977C412.556 75.0221 411.781 74.248 410.827 74.248C409.872 74.248 409.098 75.0221 409.098 75.977C409.098 76.9319 409.872 77.7059 410.827 77.7059Z" fill="#E50046" fill-opacity="0.08"/>
<path d="M295.817 63.2216C296.772 63.2216 297.546 62.4475 297.546 61.4926C297.546 60.5378 296.772 59.7637 295.817 59.7637C294.862 59.7637 294.088 60.5378 294.088 61.4926C294.088 62.4475 294.862 63.2216 295.817 63.2216Z" fill="#E50046" fill-opacity="0.08"/>
<path d="M316.722 227.842C317.677 227.842 318.451 227.068 318.451 226.113C318.451 225.158 317.677 224.384 316.722 224.384C315.767 224.384 314.993 225.158 314.993 226.113C314.993 227.068 315.767 227.842 316.722 227.842Z" fill="#E50046" fill-opacity="0.08"/>
<path d="M362.876 55V62.5862" stroke="#FFA1BE" stroke-width="1.76424" stroke-linecap="round" stroke-linejoin="round"/>
<path d="M359.082 58.793H366.668" stroke="#FFA1BE" stroke-width="1.76424" stroke-linecap="round" stroke-linejoin="round"/>
<path d="M239.272 86.9326V94.5188" stroke="#FFA1BE" stroke-width="1.76424" stroke-linecap="round" stroke-linejoin="round"/>
<path d="M235.461 90.7256H243.065" stroke="#FFA1BE" stroke-width="1.76424" stroke-linecap="round" stroke-linejoin="round"/>
<path d="M244.989 192.627V200.231" stroke="#FFA1BE" stroke-width="1.76424" stroke-linecap="round" stroke-linejoin="round"/>
<path d="M241.178 196.421H248.782" stroke="#FFA1BE" stroke-width="1.76424" stroke-linecap="round" stroke-linejoin="round"/>
<path d="M401.74 114.843V122.429" stroke="#FFA1BE" stroke-width="1.76424" stroke-linecap="round" stroke-linejoin="round"/>
<path d="M397.948 118.636H405.534" stroke="#FFA1BE" stroke-width="1.76424" stroke-linecap="round" stroke-linejoin="round"/>
<path d="M348.866 70.583L260.314 82.211C254.575 82.9647 250.533 88.2284 251.287 93.9679L264.784 196.755C265.537 202.494 270.801 206.536 276.541 205.782L365.093 194.154C370.832 193.401 374.874 188.137 374.121 182.398L360.623 79.6106C359.87 73.8711 354.606 69.8293 348.866 70.583Z" fill="#E50046" fill-opacity="0.08"/>
<path d="M374.66 85.6621H285.213C279.416 85.6621 274.716 90.3619 274.716 96.1593V199.985C274.716 205.782 279.416 210.482 285.213 210.482H374.66C380.457 210.482 385.157 205.782 385.157 199.985V96.1593C385.157 90.3619 380.457 85.6621 374.66 85.6621Z" fill="white" stroke="#FFA1BE" stroke-width="1.76424" stroke-linecap="round" stroke-linejoin="round"/>
<path d="M288.071 167.805L305.961 138.642C306.137 138.216 306.435 137.852 306.818 137.596C307.201 137.34 307.652 137.203 308.113 137.203C308.574 137.203 309.025 137.34 309.408 137.596C309.791 137.852 310.089 138.216 310.265 138.642L320.41 155.173C320.582 155.601 320.878 155.967 321.26 156.225C321.642 156.483 322.092 156.62 322.553 156.62C323.014 156.62 323.464 156.483 323.846 156.225C324.228 155.967 324.525 155.601 324.697 155.173L342.057 126.946C342.229 126.518 342.525 126.152 342.907 125.894C343.289 125.636 343.74 125.499 344.2 125.499C344.661 125.499 345.112 125.636 345.494 125.894C345.876 126.152 346.172 126.518 346.344 126.946L371.82 168.458L288.071 167.805Z" fill="white" stroke="#FFA1BE" stroke-width="1.76424" stroke-linecap="round" stroke-linejoin="round"/>
<path d="M323.745 134.726C326.853 134.726 329.373 132.206 329.373 129.098C329.373 125.99 326.853 123.47 323.745 123.47C320.637 123.47 318.117 125.99 318.117 129.098C318.117 132.206 320.637 134.726 323.745 134.726Z" fill="white" stroke="#FFA1BE" stroke-width="1.76424" stroke-linecap="round" stroke-linejoin="round"/>
<path d="M262.951 296.635V284.715H265.031L269.495 290.779H268.503L272.871 284.715H274.951V296.635H272.759V287.195L273.607 287.403L269.079 293.435H268.823L264.407 287.403L265.127 287.195V296.635H262.951ZM281.504 296.827C280.608 296.827 279.824 296.624 279.152 296.219C278.48 295.813 277.958 295.264 277.584 294.571C277.211 293.877 277.024 293.109 277.024 292.267C277.024 291.392 277.211 290.619 277.584 289.947C277.968 289.264 278.486 288.725 279.136 288.331C279.798 287.936 280.534 287.739 281.344 287.739C282.027 287.739 282.624 287.851 283.136 288.075C283.659 288.299 284.102 288.608 284.464 289.003C284.827 289.397 285.104 289.851 285.296 290.363C285.488 290.864 285.584 291.408 285.584 291.995C285.584 292.144 285.574 292.299 285.552 292.459C285.542 292.619 285.515 292.757 285.472 292.875H278.752V291.275H284.288L283.296 292.027C283.392 291.536 283.366 291.099 283.216 290.715C283.078 290.331 282.843 290.027 282.512 289.803C282.192 289.579 281.803 289.467 281.344 289.467C280.907 289.467 280.518 289.579 280.176 289.803C279.835 290.016 279.574 290.336 279.392 290.763C279.222 291.179 279.158 291.685 279.2 292.283C279.158 292.816 279.227 293.291 279.408 293.707C279.6 294.112 279.878 294.427 280.24 294.651C280.614 294.875 281.04 294.987 281.52 294.987C282 294.987 282.406 294.885 282.736 294.683C283.078 294.48 283.344 294.208 283.536 293.867L285.232 294.699C285.062 295.115 284.795 295.483 284.432 295.803C284.07 296.123 283.638 296.373 283.136 296.555C282.646 296.736 282.102 296.827 281.504 296.827ZM291.541 296.827C290.699 296.827 289.947 296.629 289.285 296.235C288.624 295.829 288.101 295.28 287.717 294.587C287.333 293.893 287.141 293.125 287.141 292.283C287.141 291.429 287.333 290.661 287.717 289.979C288.101 289.296 288.624 288.752 289.285 288.347C289.957 287.941 290.704 287.739 291.525 287.739C292.187 287.739 292.773 287.872 293.285 288.139C293.808 288.395 294.219 288.757 294.517 289.227L294.197 289.659V284.523H296.293V296.635H294.309V294.955L294.533 295.371C294.235 295.84 293.819 296.203 293.285 296.459C292.752 296.704 292.171 296.827 291.541 296.827ZM291.765 294.907C292.245 294.907 292.667 294.795 293.029 294.571C293.392 294.347 293.675 294.037 293.877 293.643C294.091 293.248 294.197 292.795 294.197 292.283C294.197 291.781 294.091 291.333 293.877 290.939C293.675 290.533 293.392 290.219 293.029 289.995C292.667 289.771 292.245 289.659 291.765 289.659C291.296 289.659 290.875 289.776 290.501 290.011C290.128 290.235 289.835 290.544 289.621 290.939C289.419 291.323 289.317 291.771 289.317 292.283C289.317 292.795 289.419 293.248 289.621 293.643C289.835 294.037 290.128 294.347 290.501 294.571C290.875 294.795 291.296 294.907 291.765 294.907ZM298.563 296.635V287.931H300.659V296.635H298.563ZM298.563 286.955V284.715H300.659V286.955H298.563ZM305.554 296.827C304.946 296.827 304.418 296.725 303.97 296.523C303.522 296.32 303.176 296.032 302.93 295.659C302.685 295.275 302.562 294.832 302.562 294.331C302.562 293.851 302.669 293.424 302.882 293.051C303.096 292.667 303.426 292.347 303.874 292.091C304.322 291.835 304.888 291.653 305.57 291.547L308.418 291.083V292.683L305.97 293.099C305.554 293.173 305.245 293.307 305.042 293.499C304.84 293.691 304.738 293.941 304.738 294.251C304.738 294.549 304.85 294.789 305.074 294.971C305.309 295.141 305.597 295.227 305.938 295.227C306.376 295.227 306.76 295.136 307.09 294.955C307.432 294.763 307.693 294.501 307.874 294.171C308.066 293.84 308.162 293.477 308.162 293.083V290.843C308.162 290.469 308.013 290.16 307.714 289.915C307.426 289.659 307.042 289.531 306.562 289.531C306.114 289.531 305.714 289.653 305.362 289.899C305.021 290.133 304.77 290.448 304.61 290.843L302.898 290.011C303.069 289.552 303.336 289.157 303.698 288.827C304.072 288.485 304.509 288.219 305.01 288.027C305.512 287.835 306.056 287.739 306.642 287.739C307.357 287.739 307.986 287.872 308.53 288.139C309.074 288.395 309.496 288.757 309.794 289.227C310.104 289.685 310.258 290.224 310.258 290.843V296.635H308.274V295.147L308.722 295.115C308.498 295.488 308.232 295.803 307.922 296.059C307.613 296.304 307.261 296.496 306.866 296.635C306.472 296.763 306.034 296.827 305.554 296.827ZM315.855 296.635V284.715H317.551L324.111 293.547L323.231 293.723V284.715H325.407V296.635H323.695L317.231 287.739L318.031 287.563V296.635H315.855ZM332.115 296.827C331.261 296.827 330.483 296.629 329.779 296.235C329.085 295.84 328.531 295.301 328.115 294.619C327.709 293.936 327.507 293.157 327.507 292.283C327.507 291.408 327.709 290.629 328.115 289.947C328.531 289.264 329.085 288.725 329.779 288.331C330.472 287.936 331.251 287.739 332.115 287.739C332.968 287.739 333.741 287.936 334.435 288.331C335.128 288.725 335.677 289.264 336.083 289.947C336.499 290.619 336.707 291.397 336.707 292.283C336.707 293.157 336.499 293.936 336.083 294.619C335.667 295.301 335.112 295.84 334.419 296.235C333.725 296.629 332.957 296.827 332.115 296.827ZM332.115 294.907C332.584 294.907 332.995 294.795 333.347 294.571C333.709 294.347 333.992 294.037 334.195 293.643C334.408 293.237 334.515 292.784 334.515 292.283C334.515 291.771 334.408 291.323 334.195 290.939C333.992 290.544 333.709 290.235 333.347 290.011C332.995 289.776 332.584 289.659 332.115 289.659C331.635 289.659 331.213 289.776 330.851 290.011C330.488 290.235 330.2 290.544 329.987 290.939C329.784 291.323 329.683 291.771 329.683 292.283C329.683 292.784 329.784 293.237 329.987 293.643C330.2 294.037 330.488 294.347 330.851 294.571C331.213 294.795 331.635 294.907 332.115 294.907ZM342.428 296.731C341.447 296.731 340.684 296.464 340.14 295.931C339.607 295.387 339.34 294.624 339.34 293.643V289.803H337.836V287.931H337.996C338.423 287.931 338.753 287.819 338.988 287.595C339.223 287.371 339.34 287.045 339.34 286.619V285.947H341.436V287.931H343.436V289.803H341.436V293.531C341.436 293.819 341.484 294.064 341.58 294.267C341.687 294.469 341.847 294.624 342.06 294.731C342.284 294.837 342.567 294.891 342.908 294.891C342.983 294.891 343.068 294.885 343.164 294.875C343.271 294.864 343.372 294.853 343.468 294.843V296.635C343.319 296.656 343.148 296.677 342.956 296.699C342.764 296.72 342.588 296.731 342.428 296.731ZM348.729 296.635V284.715H356.681V286.635H350.905V289.931H355.961V291.851H350.905V296.635H348.729ZM362.317 296.827C361.463 296.827 360.685 296.629 359.981 296.235C359.287 295.84 358.733 295.301 358.317 294.619C357.911 293.936 357.709 293.157 357.709 292.283C357.709 291.408 357.911 290.629 358.317 289.947C358.733 289.264 359.287 288.725 359.981 288.331C360.674 287.936 361.453 287.739 362.317 287.739C363.17 287.739 363.943 287.936 364.637 288.331C365.33 288.725 365.879 289.264 366.285 289.947C366.701 290.619 366.909 291.397 366.909 292.283C366.909 293.157 366.701 293.936 366.285 294.619C365.869 295.301 365.314 295.84 364.621 296.235C363.927 296.629 363.159 296.827 362.317 296.827ZM362.317 294.907C362.786 294.907 363.197 294.795 363.549 294.571C363.911 294.347 364.194 294.037 364.397 293.643C364.61 293.237 364.717 292.784 364.717 292.283C364.717 291.771 364.61 291.323 364.397 290.939C364.194 290.544 363.911 290.235 363.549 290.011C363.197 289.776 362.786 289.659 362.317 289.659C361.837 289.659 361.415 289.776 361.053 290.011C360.69 290.235 360.402 290.544 360.189 290.939C359.986 291.323 359.885 291.771 359.885 292.283C359.885 292.784 359.986 293.237 360.189 293.643C360.402 294.037 360.69 294.347 361.053 294.571C361.415 294.795 361.837 294.907 362.317 294.907ZM371.922 296.827C371.25 296.827 370.664 296.677 370.162 296.379C369.672 296.08 369.293 295.664 369.026 295.131C368.77 294.597 368.642 293.973 368.642 293.259V287.931H370.738V293.083C370.738 293.445 370.808 293.765 370.946 294.043C371.096 294.309 371.304 294.523 371.57 294.683C371.848 294.832 372.157 294.907 372.498 294.907C372.84 294.907 373.144 294.832 373.41 294.683C373.677 294.523 373.885 294.304 374.034 294.027C374.184 293.749 374.258 293.419 374.258 293.035V287.931H376.354V296.635H374.37V294.923L374.546 295.227C374.344 295.76 374.008 296.16 373.538 296.427C373.08 296.693 372.541 296.827 371.922 296.827ZM378.623 296.635V287.931H380.591V289.643L380.431 289.339C380.633 288.816 380.964 288.421 381.423 288.155C381.892 287.877 382.436 287.739 383.055 287.739C383.695 287.739 384.26 287.877 384.751 288.155C385.252 288.432 385.641 288.821 385.919 289.323C386.196 289.813 386.335 290.384 386.335 291.035V296.635H384.239V291.531C384.239 291.147 384.164 290.816 384.015 290.539C383.865 290.261 383.657 290.048 383.391 289.899C383.135 289.739 382.831 289.659 382.479 289.659C382.137 289.659 381.833 289.739 381.567 289.899C381.3 290.048 381.092 290.261 380.943 290.539C380.793 290.816 380.719 291.147 380.719 291.531V296.635H378.623ZM392.475 296.827C391.632 296.827 390.88 296.629 390.219 296.235C389.558 295.829 389.035 295.28 388.651 294.587C388.267 293.893 388.075 293.125 388.075 292.283C388.075 291.429 388.267 290.661 388.651 289.979C389.035 289.296 389.558 288.752 390.219 288.347C390.891 287.941 391.638 287.739 392.459 287.739C393.12 287.739 393.707 287.872 394.219 288.139C394.742 288.395 395.152 288.757 395.451 289.227L395.131 289.659V284.523H397.227V296.635H395.243V294.955L395.467 295.371C395.168 295.84 394.752 296.203 394.219 296.459C393.686 296.704 393.104 296.827 392.475 296.827ZM392.699 294.907C393.179 294.907 393.6 294.795 393.963 294.571C394.326 294.347 394.608 294.037 394.811 293.643C395.024 293.248 395.131 292.795 395.131 292.283C395.131 291.781 395.024 291.333 394.811 290.939C394.608 290.533 394.326 290.219 393.963 289.995C393.6 289.771 393.179 289.659 392.699 289.659C392.23 289.659 391.808 289.776 391.435 290.011C391.062 290.235 390.768 290.544 390.555 290.939C390.352 291.323 390.251 291.771 390.251 292.283C390.251 292.795 390.352 293.248 390.555 293.643C390.768 294.037 391.062 294.347 391.435 294.571C391.808 294.795 392.23 294.907 392.699 294.907Z" fill="#E50046"/>
<path d="M171.659 320.635V310.205H173.031V320.635H171.659ZM178.542 320.719C177.805 320.719 177.236 320.509 176.834 320.089C176.442 319.669 176.246 319.076 176.246 318.311V314.335H174.874V313.089H175.154C175.49 313.089 175.756 312.986 175.952 312.781C176.148 312.575 176.246 312.305 176.246 311.969V311.353H177.548V313.089H179.242V314.335H177.548V318.269C177.548 318.521 177.586 318.74 177.66 318.927C177.744 319.113 177.88 319.263 178.066 319.375C178.253 319.477 178.5 319.529 178.808 319.529C178.874 319.529 178.953 319.524 179.046 319.515C179.149 319.505 179.242 319.496 179.326 319.487V320.635C179.205 320.663 179.07 320.681 178.92 320.691C178.771 320.709 178.645 320.719 178.542 320.719ZM184.007 320.635V310.037H185.309V320.635H184.007ZM191.193 320.803C190.465 320.803 189.807 320.635 189.219 320.299C188.631 319.953 188.165 319.482 187.819 318.885C187.474 318.287 187.301 317.611 187.301 316.855C187.301 316.099 187.469 315.427 187.805 314.839C188.151 314.251 188.617 313.784 189.205 313.439C189.793 313.093 190.456 312.921 191.193 312.921C191.921 312.921 192.579 313.093 193.167 313.439C193.755 313.775 194.217 314.237 194.553 314.825C194.899 315.413 195.071 316.089 195.071 316.855C195.071 317.62 194.894 318.301 194.539 318.899C194.185 319.487 193.713 319.953 193.125 320.299C192.547 320.635 191.903 320.803 191.193 320.803ZM191.193 319.543C191.66 319.543 192.08 319.426 192.453 319.193C192.836 318.959 193.135 318.637 193.349 318.227C193.573 317.816 193.685 317.359 193.685 316.855C193.685 316.341 193.573 315.889 193.349 315.497C193.135 315.095 192.836 314.778 192.453 314.545C192.08 314.302 191.66 314.181 191.193 314.181C190.717 314.181 190.288 314.302 189.905 314.545C189.532 314.778 189.233 315.095 189.009 315.497C188.785 315.889 188.673 316.341 188.673 316.855C188.673 317.359 188.785 317.816 189.009 318.227C189.233 318.637 189.532 318.959 189.905 319.193C190.288 319.426 190.717 319.543 191.193 319.543ZM200.634 320.803C199.906 320.803 199.248 320.635 198.66 320.299C198.072 319.953 197.605 319.482 197.26 318.885C196.914 318.287 196.742 317.611 196.742 316.855C196.742 316.099 196.91 315.427 197.246 314.839C197.591 314.251 198.058 313.784 198.646 313.439C199.234 313.093 199.896 312.921 200.634 312.921C201.362 312.921 202.02 313.093 202.608 313.439C203.196 313.775 203.658 314.237 203.994 314.825C204.339 315.413 204.512 316.089 204.512 316.855C204.512 317.62 204.334 318.301 203.98 318.899C203.625 319.487 203.154 319.953 202.566 320.299C201.987 320.635 201.343 320.803 200.634 320.803ZM200.634 319.543C201.1 319.543 201.52 319.426 201.894 319.193C202.276 318.959 202.575 318.637 202.79 318.227C203.014 317.816 203.126 317.359 203.126 316.855C203.126 316.341 203.014 315.889 202.79 315.497C202.575 315.095 202.276 314.778 201.894 314.545C201.52 314.302 201.1 314.181 200.634 314.181C200.158 314.181 199.728 314.302 199.346 314.545C198.972 314.778 198.674 315.095 198.45 315.497C198.226 315.889 198.114 316.341 198.114 316.855C198.114 317.359 198.226 317.816 198.45 318.227C198.674 318.637 198.972 318.959 199.346 319.193C199.728 319.426 200.158 319.543 200.634 319.543ZM206.49 320.635V310.037H207.792V317.303L207.26 317.177L211.264 313.089H212.93L210.032 316.127L213.126 320.635H211.586L208.758 316.547L209.57 316.505L207.372 318.801L207.792 317.849V320.635H206.49ZM217.278 320.803C216.522 320.803 215.864 320.616 215.304 320.243C214.744 319.869 214.348 319.365 214.114 318.731L215.15 318.227C215.365 318.675 215.659 319.029 216.032 319.291C216.406 319.552 216.821 319.683 217.278 319.683C217.689 319.683 218.03 319.585 218.3 319.389C218.571 319.193 218.706 318.936 218.706 318.619C218.706 318.395 218.641 318.217 218.51 318.087C218.389 317.947 218.24 317.839 218.062 317.765C217.885 317.681 217.722 317.62 217.572 317.583L216.438 317.261C215.757 317.065 215.258 316.785 214.94 316.421C214.632 316.057 214.478 315.632 214.478 315.147C214.478 314.699 214.59 314.311 214.814 313.985C215.048 313.649 215.36 313.387 215.752 313.201C216.154 313.014 216.602 312.921 217.096 312.921C217.759 312.921 218.352 313.089 218.874 313.425C219.406 313.761 219.784 314.232 220.008 314.839L218.944 315.329C218.776 314.937 218.524 314.629 218.188 314.405C217.852 314.171 217.474 314.055 217.054 314.055C216.672 314.055 216.368 314.153 216.144 314.349C215.92 314.535 215.808 314.773 215.808 315.063C215.808 315.277 215.864 315.455 215.976 315.595C216.088 315.725 216.224 315.828 216.382 315.903C216.541 315.968 216.695 316.024 216.844 316.071L218.076 316.435C218.692 316.612 219.168 316.887 219.504 317.261C219.85 317.634 220.022 318.082 220.022 318.605C220.022 319.025 219.906 319.403 219.672 319.739C219.439 320.075 219.117 320.336 218.706 320.523C218.296 320.709 217.82 320.803 217.278 320.803ZM224.707 320.635V310.037H226.009V320.635H224.707ZM228.309 320.635V313.089H229.611V320.635H228.309ZM228.309 311.885V310.205H229.611V311.885H228.309ZM231.911 320.635V310.037H233.213V317.303L232.681 317.177L236.685 313.089H238.351L235.453 316.127L238.547 320.635H237.007L234.179 316.547L234.991 316.505L232.793 318.801L233.213 317.849V320.635H231.911ZM243.333 320.803C242.605 320.803 241.956 320.63 241.387 320.285C240.818 319.939 240.37 319.468 240.043 318.871C239.716 318.264 239.553 317.587 239.553 316.841C239.553 316.085 239.712 315.413 240.029 314.825C240.356 314.237 240.794 313.775 241.345 313.439C241.905 313.093 242.53 312.921 243.221 312.921C243.781 312.921 244.276 313.023 244.705 313.229C245.144 313.425 245.512 313.695 245.811 314.041C246.119 314.377 246.352 314.764 246.511 315.203C246.679 315.632 246.763 316.08 246.763 316.547C246.763 316.649 246.754 316.766 246.735 316.897C246.726 317.018 246.712 317.135 246.693 317.247H240.505V316.127H245.937L245.321 316.631C245.405 316.145 245.358 315.711 245.181 315.329C245.004 314.946 244.742 314.643 244.397 314.419C244.052 314.195 243.66 314.083 243.221 314.083C242.782 314.083 242.381 314.195 242.017 314.419C241.653 314.643 241.368 314.965 241.163 315.385C240.967 315.795 240.888 316.285 240.925 316.855C240.888 317.405 240.972 317.891 241.177 318.311C241.392 318.721 241.69 319.043 242.073 319.277C242.465 319.501 242.89 319.613 243.347 319.613C243.851 319.613 244.276 319.496 244.621 319.263C244.966 319.029 245.246 318.731 245.461 318.367L246.553 318.927C246.404 319.272 246.17 319.589 245.853 319.879C245.545 320.159 245.176 320.383 244.747 320.551C244.327 320.719 243.856 320.803 243.333 320.803ZM254.507 320.719C253.769 320.719 253.2 320.509 252.799 320.089C252.407 319.669 252.211 319.076 252.211 318.311V314.335H250.839V313.089H251.119C251.455 313.089 251.721 312.986 251.917 312.781C252.113 312.575 252.211 312.305 252.211 311.969V311.353H253.513V313.089H255.207V314.335H253.513V318.269C253.513 318.521 253.55 318.74 253.625 318.927C253.709 319.113 253.844 319.263 254.031 319.375C254.217 319.477 254.465 319.529 254.773 319.529C254.838 319.529 254.917 319.524 255.011 319.515C255.113 319.505 255.207 319.496 255.291 319.487V320.635C255.169 320.663 255.034 320.681 254.885 320.691C254.735 320.709 254.609 320.719 254.507 320.719ZM257.271 320.635V310.037H258.573V314.559L258.335 314.433C258.522 313.957 258.821 313.588 259.231 313.327C259.651 313.056 260.141 312.921 260.701 312.921C261.243 312.921 261.723 313.042 262.143 313.285C262.573 313.527 262.909 313.863 263.151 314.293C263.403 314.722 263.529 315.207 263.529 315.749V320.635H262.213V316.169C262.213 315.749 262.134 315.394 261.975 315.105C261.826 314.815 261.616 314.591 261.345 314.433C261.075 314.265 260.762 314.181 260.407 314.181C260.062 314.181 259.749 314.265 259.469 314.433C259.189 314.591 258.97 314.82 258.811 315.119C258.653 315.408 258.573 315.758 258.573 316.169V320.635H257.271ZM269.145 320.803C268.417 320.803 267.768 320.63 267.199 320.285C266.629 319.939 266.181 319.468 265.855 318.871C265.528 318.264 265.365 317.587 265.365 316.841C265.365 316.085 265.523 315.413 265.841 314.825C266.167 314.237 266.606 313.775 267.157 313.439C267.717 313.093 268.342 312.921 269.033 312.921C269.593 312.921 270.087 313.023 270.517 313.229C270.955 313.425 271.324 313.695 271.623 314.041C271.931 314.377 272.164 314.764 272.323 315.203C272.491 315.632 272.575 316.08 272.575 316.547C272.575 316.649 272.565 316.766 272.547 316.897C272.537 317.018 272.523 317.135 272.505 317.247H266.317V316.127H271.749L271.133 316.631C271.217 316.145 271.17 315.711 270.993 315.329C270.815 314.946 270.554 314.643 270.209 314.419C269.863 314.195 269.471 314.083 269.033 314.083C268.594 314.083 268.193 314.195 267.829 314.419C267.465 314.643 267.18 314.965 266.975 315.385C266.779 315.795 266.699 316.285 266.737 316.855C266.699 317.405 266.783 317.891 266.989 318.311C267.203 318.721 267.502 319.043 267.885 319.277C268.277 319.501 268.701 319.613 269.159 319.613C269.663 319.613 270.087 319.496 270.433 319.263C270.778 319.029 271.058 318.731 271.273 318.367L272.365 318.927C272.215 319.272 271.982 319.589 271.665 319.879C271.357 320.159 270.988 320.383 270.559 320.551C270.139 320.719 269.667 320.803 269.145 320.803ZM277.252 320.635V313.089H278.526V314.629L278.344 314.391C278.531 313.915 278.829 313.551 279.24 313.299C279.651 313.047 280.113 312.921 280.626 312.921C281.214 312.921 281.741 313.084 282.208 313.411C282.684 313.737 283.011 314.167 283.188 314.699L282.824 314.713C283.02 314.125 283.351 313.681 283.818 313.383C284.285 313.075 284.803 312.921 285.372 312.921C285.895 312.921 286.366 313.042 286.786 313.285C287.215 313.527 287.556 313.863 287.808 314.293C288.06 314.722 288.186 315.207 288.186 315.749V320.635H286.87V316.169C286.87 315.749 286.795 315.394 286.646 315.105C286.497 314.815 286.291 314.591 286.03 314.433C285.778 314.265 285.479 314.181 285.134 314.181C284.798 314.181 284.495 314.265 284.224 314.433C283.963 314.591 283.753 314.82 283.594 315.119C283.445 315.408 283.37 315.758 283.37 316.169V320.635H282.054V316.169C282.054 315.749 281.979 315.394 281.83 315.105C281.681 314.815 281.475 314.591 281.214 314.433C280.962 314.265 280.663 314.181 280.318 314.181C279.982 314.181 279.679 314.265 279.408 314.433C279.147 314.591 278.937 314.82 278.778 315.119C278.629 315.408 278.554 315.758 278.554 316.169V320.635H277.252ZM293.787 320.803C293.059 320.803 292.411 320.63 291.841 320.285C291.272 319.939 290.824 319.468 290.497 318.871C290.171 318.264 290.007 317.587 290.007 316.841C290.007 316.085 290.166 315.413 290.483 314.825C290.81 314.237 291.249 313.775 291.799 313.439C292.359 313.093 292.985 312.921 293.675 312.921C294.235 312.921 294.73 313.023 295.159 313.229C295.598 313.425 295.967 313.695 296.265 314.041C296.573 314.377 296.807 314.764 296.965 315.203C297.133 315.632 297.217 316.08 297.217 316.547C297.217 316.649 297.208 316.766 297.189 316.897C297.18 317.018 297.166 317.135 297.147 317.247H290.959V316.127H296.391L295.775 316.631C295.859 316.145 295.813 315.711 295.635 315.329C295.458 314.946 295.197 314.643 294.851 314.419C294.506 314.195 294.114 314.083 293.675 314.083C293.237 314.083 292.835 314.195 292.471 314.419C292.107 314.643 291.823 314.965 291.617 315.385C291.421 315.795 291.342 316.285 291.379 316.855C291.342 317.405 291.426 317.891 291.631 318.311C291.846 318.721 292.145 319.043 292.527 319.277C292.919 319.501 293.344 319.613 293.801 319.613C294.305 319.613 294.73 319.496 295.075 319.263C295.421 319.029 295.701 318.731 295.915 318.367L297.007 318.927C296.858 319.272 296.625 319.589 296.307 319.879C295.999 320.159 295.631 320.383 295.201 320.551C294.781 320.719 294.31 320.803 293.787 320.803ZM302.625 320.803C301.916 320.803 301.276 320.63 300.707 320.285C300.147 319.939 299.704 319.468 299.377 318.871C299.05 318.273 298.887 317.606 298.887 316.869C298.887 316.113 299.05 315.441 299.377 314.853C299.704 314.255 300.147 313.784 300.707 313.439C301.276 313.093 301.916 312.921 302.625 312.921C303.25 312.921 303.806 313.056 304.291 313.327C304.776 313.588 305.159 313.943 305.439 314.391L305.229 314.713V310.037H306.545V320.635H305.271V319.025L305.439 319.249C305.178 319.743 304.795 320.126 304.291 320.397C303.796 320.667 303.241 320.803 302.625 320.803ZM302.737 319.543C303.213 319.543 303.638 319.426 304.011 319.193C304.384 318.959 304.678 318.642 304.893 318.241C305.117 317.83 305.229 317.373 305.229 316.869C305.229 316.355 305.117 315.898 304.893 315.497C304.678 315.086 304.384 314.764 304.011 314.531C303.638 314.297 303.213 314.181 302.737 314.181C302.27 314.181 301.846 314.302 301.463 314.545C301.09 314.778 300.796 315.095 300.581 315.497C300.366 315.889 300.259 316.346 300.259 316.869C300.259 317.373 300.366 317.83 300.581 318.241C300.796 318.642 301.09 318.959 301.463 319.193C301.836 319.426 302.261 319.543 302.737 319.543ZM308.84 320.635V313.089H310.142V320.635H308.84ZM308.84 311.885V310.205H310.142V311.885H308.84ZM314.654 320.803C314.16 320.803 313.721 320.714 313.338 320.537C312.965 320.35 312.671 320.098 312.456 319.781C312.242 319.454 312.134 319.081 312.134 318.661C312.134 318.259 312.218 317.9 312.386 317.583C312.564 317.256 312.834 316.981 313.198 316.757C313.572 316.533 314.038 316.374 314.598 316.281L317.398 315.819V316.911L314.892 317.331C314.407 317.415 314.052 317.569 313.828 317.793C313.614 318.017 313.506 318.292 313.506 318.619C313.506 318.927 313.628 319.183 313.87 319.389C314.122 319.594 314.435 319.697 314.808 319.697C315.284 319.697 315.695 319.599 316.04 319.403C316.395 319.197 316.67 318.922 316.866 318.577C317.072 318.231 317.174 317.849 317.174 317.429V315.511C317.174 315.1 317.02 314.769 316.712 314.517C316.414 314.255 316.017 314.125 315.522 314.125C315.093 314.125 314.71 314.237 314.374 314.461C314.048 314.675 313.805 314.965 313.646 315.329L312.512 314.741C312.652 314.395 312.876 314.087 313.184 313.817C313.492 313.537 313.852 313.317 314.262 313.159C314.673 313 315.102 312.921 315.55 312.921C316.129 312.921 316.638 313.033 317.076 313.257C317.515 313.471 317.856 313.775 318.098 314.167C318.35 314.549 318.476 314.997 318.476 315.511V320.635H317.202V319.207L317.44 319.291C317.282 319.589 317.067 319.851 316.796 320.075C316.526 320.299 316.208 320.476 315.844 320.607C315.48 320.737 315.084 320.803 314.654 320.803ZM323.881 323.715C323.713 323.715 323.545 323.701 323.377 323.673C323.209 323.645 323.05 323.598 322.901 323.533V322.371C323.004 322.389 323.13 322.408 323.279 322.427C323.438 322.455 323.592 322.469 323.741 322.469C324.18 322.469 324.511 322.371 324.735 322.175C324.968 321.988 325.188 321.661 325.393 321.195L325.869 320.061L325.841 321.195L322.621 313.089H324.035L326.541 319.529H326.121L328.613 313.089H330.055L326.653 321.531C326.494 321.932 326.289 322.296 326.037 322.623C325.794 322.959 325.496 323.225 325.141 323.421C324.786 323.617 324.366 323.715 323.881 323.715ZM334.941 320.803C334.213 320.803 333.555 320.635 332.967 320.299C332.379 319.953 331.912 319.482 331.567 318.885C331.221 318.287 331.049 317.611 331.049 316.855C331.049 316.099 331.217 315.427 331.553 314.839C331.898 314.251 332.365 313.784 332.953 313.439C333.541 313.093 334.203 312.921 334.941 312.921C335.669 312.921 336.327 313.093 336.915 313.439C337.503 313.775 337.965 314.237 338.301 314.825C338.646 315.413 338.819 316.089 338.819 316.855C338.819 317.62 338.641 318.301 338.287 318.899C337.932 319.487 337.461 319.953 336.873 320.299C336.294 320.635 335.65 320.803 334.941 320.803ZM334.941 319.543C335.407 319.543 335.827 319.426 336.201 319.193C336.583 318.959 336.882 318.637 337.097 318.227C337.321 317.816 337.433 317.359 337.433 316.855C337.433 316.341 337.321 315.889 337.097 315.497C336.882 315.095 336.583 314.778 336.201 314.545C335.827 314.302 335.407 314.181 334.941 314.181C334.465 314.181 334.035 314.302 333.653 314.545C333.279 314.778 332.981 315.095 332.757 315.497C332.533 315.889 332.421 316.341 332.421 316.855C332.421 317.359 332.533 317.816 332.757 318.227C332.981 318.637 333.279 318.959 333.653 319.193C334.035 319.426 334.465 319.543 334.941 319.543ZM343.471 320.803C342.929 320.803 342.439 320.677 342.001 320.425C341.571 320.173 341.235 319.823 340.993 319.375C340.759 318.917 340.643 318.395 340.643 317.807V313.089H341.945V317.667C341.945 318.04 342.019 318.367 342.169 318.647C342.327 318.927 342.542 319.146 342.813 319.305C343.093 319.463 343.41 319.543 343.765 319.543C344.119 319.543 344.432 319.463 344.703 319.305C344.983 319.146 345.197 318.917 345.347 318.619C345.505 318.32 345.585 317.965 345.585 317.555V313.089H346.901V320.635H345.627V319.165L345.837 319.291C345.659 319.767 345.356 320.14 344.927 320.411C344.507 320.672 344.021 320.803 343.471 320.803ZM349.422 313.691V313.061C349.711 312.986 349.926 312.851 350.066 312.655C350.215 312.449 350.304 312.193 350.332 311.885H349.702V310.205H351.06V311.395C351.06 312.001 350.92 312.505 350.64 312.907C350.369 313.299 349.963 313.56 349.422 313.691ZM353.661 320.635V313.089H354.935V314.475L354.795 314.279C354.973 313.849 355.243 313.532 355.607 313.327C355.971 313.112 356.415 313.005 356.937 313.005H357.399V314.237H356.741C356.209 314.237 355.78 314.405 355.453 314.741C355.127 315.067 354.963 315.534 354.963 316.141V320.635H353.661ZM362.308 320.803C361.58 320.803 360.931 320.63 360.362 320.285C359.793 319.939 359.345 319.468 359.018 318.871C358.691 318.264 358.528 317.587 358.528 316.841C358.528 316.085 358.687 315.413 359.004 314.825C359.331 314.237 359.769 313.775 360.32 313.439C360.88 313.093 361.505 312.921 362.196 312.921C362.756 312.921 363.251 313.023 363.68 313.229C364.119 313.425 364.487 313.695 364.786 314.041C365.094 314.377 365.327 314.764 365.486 315.203C365.654 315.632 365.738 316.08 365.738 316.547C365.738 316.649 365.729 316.766 365.71 316.897C365.701 317.018 365.687 317.135 365.668 317.247H359.48V316.127H364.912L364.296 316.631C364.38 316.145 364.333 315.711 364.156 315.329C363.979 314.946 363.717 314.643 363.372 314.419C363.027 314.195 362.635 314.083 362.196 314.083C361.757 314.083 361.356 314.195 360.992 314.419C360.628 314.643 360.343 314.965 360.138 315.385C359.942 315.795 359.863 316.285 359.9 316.855C359.863 317.405 359.947 317.891 360.152 318.311C360.367 318.721 360.665 319.043 361.048 319.277C361.44 319.501 361.865 319.613 362.322 319.613C362.826 319.613 363.251 319.496 363.596 319.263C363.941 319.029 364.221 318.731 364.436 318.367L365.528 318.927C365.379 319.272 365.145 319.589 364.828 319.879C364.52 320.159 364.151 320.383 363.722 320.551C363.302 320.719 362.831 320.803 362.308 320.803ZM373.482 320.719C372.744 320.719 372.175 320.509 371.774 320.089C371.382 319.669 371.186 319.076 371.186 318.311V314.335H369.814V313.089H370.094C370.43 313.089 370.696 312.986 370.892 312.781C371.088 312.575 371.186 312.305 371.186 311.969V311.353H372.488V313.089H374.182V314.335H372.488V318.269C372.488 318.521 372.525 318.74 372.6 318.927C372.684 319.113 372.819 319.263 373.006 319.375C373.192 319.477 373.44 319.529 373.748 319.529C373.813 319.529 373.892 319.524 373.986 319.515C374.088 319.505 374.182 319.496 374.266 319.487V320.635C374.144 320.663 374.009 320.681 373.86 320.691C373.71 320.709 373.584 320.719 373.482 320.719ZM376.246 320.635V313.089H377.52V314.475L377.38 314.279C377.558 313.849 377.828 313.532 378.192 313.327C378.556 313.112 379 313.005 379.522 313.005H379.984V314.237H379.326C378.794 314.237 378.365 314.405 378.038 314.741C377.712 315.067 377.548 315.534 377.548 316.141V320.635H376.246ZM381.827 323.715C381.659 323.715 381.491 323.701 381.323 323.673C381.155 323.645 380.996 323.598 380.847 323.533V322.371C380.95 322.389 381.076 322.408 381.225 322.427C381.384 322.455 381.538 322.469 381.687 322.469C382.126 322.469 382.457 322.371 382.681 322.175C382.914 321.988 383.134 321.661 383.339 321.195L383.815 320.061L383.787 321.195L380.567 313.089H381.981L384.487 319.529H384.067L386.559 313.089H388.001L384.599 321.531C384.44 321.932 384.235 322.296 383.983 322.623C383.74 322.959 383.442 323.225 383.087 323.421C382.732 323.617 382.312 323.715 381.827 323.715ZM389.439 320.635V313.089H390.741V320.635H389.439ZM389.439 311.885V310.205H390.741V311.885H389.439ZM393.041 320.635V313.089H394.315V314.559L394.105 314.433C394.292 313.957 394.591 313.588 395.001 313.327C395.421 313.056 395.911 312.921 396.471 312.921C397.013 312.921 397.493 313.042 397.913 313.285C398.343 313.527 398.679 313.863 398.921 314.293C399.173 314.722 399.299 315.207 399.299 315.749V320.635H397.983V316.169C397.983 315.749 397.909 315.394 397.759 315.105C397.61 314.815 397.395 314.591 397.115 314.433C396.845 314.265 396.532 314.181 396.177 314.181C395.823 314.181 395.505 314.265 395.225 314.433C394.955 314.591 394.74 314.82 394.581 315.119C394.423 315.408 394.343 315.758 394.343 316.169V320.635H393.041ZM405.04 323.715C404.508 323.715 404.014 323.631 403.556 323.463C403.108 323.295 402.721 323.061 402.394 322.763C402.077 322.473 401.834 322.133 401.666 321.741L402.884 321.181C403.015 321.535 403.262 321.834 403.626 322.077C404 322.329 404.466 322.455 405.026 322.455C405.456 322.455 405.843 322.371 406.188 322.203C406.543 322.044 406.823 321.801 407.028 321.475C407.234 321.157 407.336 320.77 407.336 320.313V318.619L407.574 318.871C407.313 319.384 406.935 319.776 406.44 320.047C405.955 320.317 405.418 320.453 404.83 320.453C404.121 320.453 403.486 320.289 402.926 319.963C402.366 319.627 401.928 319.174 401.61 318.605C401.293 318.026 401.134 317.387 401.134 316.687C401.134 315.977 401.293 315.338 401.61 314.769C401.928 314.199 402.362 313.751 402.912 313.425C403.472 313.089 404.107 312.921 404.816 312.921C405.404 312.921 405.936 313.056 406.412 313.327C406.898 313.588 407.285 313.952 407.574 314.419L407.378 314.769V313.089H408.652V320.313C408.652 320.966 408.498 321.549 408.19 322.063C407.882 322.576 407.453 322.977 406.902 323.267C406.361 323.565 405.74 323.715 405.04 323.715ZM404.942 319.193C405.39 319.193 405.792 319.081 406.146 318.857C406.51 318.633 406.8 318.334 407.014 317.961C407.229 317.578 407.336 317.153 407.336 316.687C407.336 316.229 407.229 315.809 407.014 315.427C406.8 315.044 406.51 314.741 406.146 314.517C405.792 314.293 405.39 314.181 404.942 314.181C404.485 314.181 404.07 314.293 403.696 314.517C403.323 314.741 403.029 315.044 402.814 315.427C402.609 315.8 402.506 316.22 402.506 316.687C402.506 317.153 402.609 317.578 402.814 317.961C403.029 318.334 403.318 318.633 403.682 318.857C404.056 319.081 404.476 319.193 404.942 319.193ZM416.717 320.719C415.98 320.719 415.41 320.509 415.009 320.089C414.617 319.669 414.421 319.076 414.421 318.311V314.335H413.049V313.089H413.329C413.665 313.089 413.931 312.986 414.127 312.781C414.323 312.575 414.421 312.305 414.421 311.969V311.353H415.723V313.089H417.417V314.335H415.723V318.269C415.723 318.521 415.76 318.74 415.835 318.927C415.919 319.113 416.054 319.263 416.241 319.375C416.428 319.477 416.675 319.529 416.983 319.529C417.048 319.529 417.128 319.524 417.221 319.515C417.324 319.505 417.417 319.496 417.501 319.487V320.635C417.38 320.663 417.244 320.681 417.095 320.691C416.946 320.709 416.82 320.719 416.717 320.719ZM422.861 320.803C422.133 320.803 421.475 320.635 420.887 320.299C420.299 319.953 419.832 319.482 419.487 318.885C419.141 318.287 418.969 317.611 418.969 316.855C418.969 316.099 419.137 315.427 419.473 314.839C419.818 314.251 420.285 313.784 420.873 313.439C421.461 313.093 422.123 312.921 422.861 312.921C423.589 312.921 424.247 313.093 424.835 313.439C425.423 313.775 425.885 314.237 426.221 314.825C426.566 315.413 426.739 316.089 426.739 316.855C426.739 317.62 426.561 318.301 426.207 318.899C425.852 319.487 425.381 319.953 424.793 320.299C424.214 320.635 423.57 320.803 422.861 320.803ZM422.861 319.543C423.327 319.543 423.747 319.426 424.121 319.193C424.503 318.959 424.802 318.637 425.017 318.227C425.241 317.816 425.353 317.359 425.353 316.855C425.353 316.341 425.241 315.889 425.017 315.497C424.802 315.095 424.503 314.778 424.121 314.545C423.747 314.302 423.327 314.181 422.861 314.181C422.385 314.181 421.955 314.302 421.573 314.545C421.199 314.778 420.901 315.095 420.677 315.497C420.453 315.889 420.341 316.341 420.341 316.855C420.341 317.359 420.453 317.816 420.677 318.227C420.901 318.637 421.199 318.959 421.573 319.193C421.955 319.426 422.385 319.543 422.861 319.543ZM432.215 320.635V314.335H430.773V313.089H432.215V312.557C432.215 312.015 432.331 311.558 432.565 311.185C432.807 310.811 433.125 310.527 433.517 310.331C433.918 310.135 434.361 310.037 434.847 310.037C434.949 310.037 435.061 310.046 435.183 310.065C435.313 310.074 435.421 310.088 435.505 310.107V311.269C435.43 311.25 435.341 311.241 435.239 311.241C435.136 311.231 435.057 311.227 435.001 311.227C434.571 311.227 434.217 311.329 433.937 311.535C433.666 311.74 433.531 312.081 433.531 312.557V313.089H437.451V314.335H433.531V320.635H432.215ZM436.639 320.635V313.089H437.955V320.635H436.639ZM440.037 320.635V313.089H441.311V314.559L441.101 314.433C441.287 313.957 441.586 313.588 441.997 313.327C442.417 313.056 442.907 312.921 443.467 312.921C444.008 312.921 444.489 313.042 444.909 313.285C445.338 313.527 445.674 313.863 445.917 314.293C446.169 314.722 446.295 315.207 446.295 315.749V320.635H444.979V316.169C444.979 315.749 444.904 315.394 444.755 315.105C444.605 314.815 444.391 314.591 444.111 314.433C443.84 314.265 443.527 314.181 443.173 314.181C442.818 314.181 442.501 314.265 442.221 314.433C441.95 314.591 441.735 314.82 441.577 315.119C441.418 315.408 441.339 315.758 441.339 316.169V320.635H440.037ZM451.868 320.803C451.158 320.803 450.519 320.63 449.95 320.285C449.39 319.939 448.946 319.468 448.62 318.871C448.293 318.273 448.13 317.606 448.13 316.869C448.13 316.113 448.293 315.441 448.62 314.853C448.946 314.255 449.39 313.784 449.95 313.439C450.519 313.093 451.158 312.921 451.868 312.921C452.493 312.921 453.048 313.056 453.534 313.327C454.019 313.588 454.402 313.943 454.682 314.391L454.472 314.713V310.037H455.788V320.635H454.514V319.025L454.682 319.249C454.42 319.743 454.038 320.126 453.534 320.397C453.039 320.667 452.484 320.803 451.868 320.803ZM451.98 319.543C452.456 319.543 452.88 319.426 453.254 319.193C453.627 318.959 453.921 318.642 454.136 318.241C454.36 317.83 454.472 317.373 454.472 316.869C454.472 316.355 454.36 315.898 454.136 315.497C453.921 315.086 453.627 314.764 453.254 314.531C452.88 314.297 452.456 314.181 451.98 314.181C451.513 314.181 451.088 314.302 450.706 314.545C450.332 314.778 450.038 315.095 449.824 315.497C449.609 315.889 449.502 316.346 449.502 316.869C449.502 317.373 449.609 317.83 449.824 318.241C450.038 318.642 450.332 318.959 450.706 319.193C451.079 319.426 451.504 319.543 451.98 319.543ZM460.783 320.635V313.089H462.085V320.635H460.783ZM460.783 311.885V310.205H462.085V311.885H460.783ZM467.087 320.803C466.331 320.803 465.673 320.616 465.113 320.243C464.553 319.869 464.156 319.365 463.923 318.731L464.959 318.227C465.174 318.675 465.468 319.029 465.841 319.291C466.214 319.552 466.63 319.683 467.087 319.683C467.498 319.683 467.838 319.585 468.109 319.389C468.38 319.193 468.515 318.936 468.515 318.619C468.515 318.395 468.45 318.217 468.319 318.087C468.198 317.947 468.048 317.839 467.871 317.765C467.694 317.681 467.53 317.62 467.381 317.583L466.247 317.261C465.566 317.065 465.066 316.785 464.749 316.421C464.441 316.057 464.287 315.632 464.287 315.147C464.287 314.699 464.399 314.311 464.623 313.985C464.856 313.649 465.169 313.387 465.561 313.201C465.962 313.014 466.41 312.921 466.905 312.921C467.568 312.921 468.16 313.089 468.683 313.425C469.215 313.761 469.593 314.232 469.817 314.839L468.753 315.329C468.585 314.937 468.333 314.629 467.997 314.405C467.661 314.171 467.283 314.055 466.863 314.055C466.48 314.055 466.177 314.153 465.953 314.349C465.729 314.535 465.617 314.773 465.617 315.063C465.617 315.277 465.673 315.455 465.785 315.595C465.897 315.725 466.032 315.828 466.191 315.903C466.35 315.968 466.504 316.024 466.653 316.071L467.885 316.435C468.501 316.612 468.977 316.887 469.313 317.261C469.658 317.634 469.831 318.082 469.831 318.605C469.831 319.025 469.714 319.403 469.481 319.739C469.248 320.075 468.926 320.336 468.515 320.523C468.104 320.709 467.628 320.803 467.087 320.803ZM471.815 320.635V313.089H473.089V314.559L472.879 314.433C473.066 313.957 473.365 313.588 473.775 313.327C474.195 313.056 474.685 312.921 475.245 312.921C475.787 312.921 476.267 313.042 476.687 313.285C477.117 313.527 477.453 313.863 477.695 314.293C477.947 314.722 478.073 315.207 478.073 315.749V320.635H476.757V316.169C476.757 315.749 476.683 315.394 476.533 315.105C476.384 314.815 476.169 314.591 475.889 314.433C475.619 314.265 475.306 314.181 474.951 314.181C474.597 314.181 474.279 314.265 473.999 314.433C473.729 314.591 473.514 314.82 473.355 315.119C473.197 315.408 473.117 315.758 473.117 316.169V320.635H471.815ZM480.441 313.691V313.061C480.73 312.986 480.945 312.851 481.085 312.655C481.234 312.449 481.323 312.193 481.351 311.885H480.721V310.205H482.079V311.395C482.079 312.001 481.939 312.505 481.659 312.907C481.388 313.299 480.982 313.56 480.441 313.691ZM487.746 320.719C487.009 320.719 486.439 320.509 486.038 320.089C485.646 319.669 485.45 319.076 485.45 318.311V314.335H484.078V313.089H484.358C484.694 313.089 484.96 312.986 485.156 312.781C485.352 312.575 485.45 312.305 485.45 311.969V311.353H486.752V313.089H488.446V314.335H486.752V318.269C486.752 318.521 486.789 318.74 486.864 318.927C486.948 319.113 487.083 319.263 487.27 319.375C487.457 319.477 487.704 319.529 488.012 319.529C488.077 319.529 488.157 319.524 488.25 319.515C488.353 319.505 488.446 319.496 488.53 319.487V320.635C488.409 320.663 488.273 320.681 488.124 320.691C487.975 320.709 487.849 320.719 487.746 320.719ZM268.23 338.803C267.735 338.803 267.296 338.714 266.914 338.537C266.54 338.35 266.246 338.098 266.032 337.781C265.817 337.454 265.71 337.081 265.71 336.661C265.71 336.259 265.794 335.9 265.962 335.583C266.139 335.256 266.41 334.981 266.774 334.757C267.147 334.533 267.614 334.374 268.174 334.281L270.974 333.819V334.911L268.468 335.331C267.982 335.415 267.628 335.569 267.404 335.793C267.189 336.017 267.082 336.292 267.082 336.619C267.082 336.927 267.203 337.183 267.446 337.389C267.698 337.594 268.01 337.697 268.384 337.697C268.86 337.697 269.27 337.599 269.616 337.403C269.97 337.197 270.246 336.922 270.442 336.577C270.647 336.231 270.75 335.849 270.75 335.429V333.511C270.75 333.1 270.596 332.769 270.288 332.517C269.989 332.255 269.592 332.125 269.098 332.125C268.668 332.125 268.286 332.237 267.95 332.461C267.623 332.675 267.38 332.965 267.222 333.329L266.088 332.741C266.228 332.395 266.452 332.087 266.76 331.817C267.068 331.537 267.427 331.317 267.838 331.159C268.248 331 268.678 330.921 269.126 330.921C269.704 330.921 270.213 331.033 270.652 331.257C271.09 331.471 271.431 331.775 271.674 332.167C271.926 332.549 272.052 332.997 272.052 333.511V338.635H270.778V337.207L271.016 337.291C270.857 337.589 270.642 337.851 270.372 338.075C270.101 338.299 269.784 338.476 269.42 338.607C269.056 338.737 268.659 338.803 268.23 338.803ZM276.314 338.635L273.36 331.089H274.816L277.182 337.473H276.678L279.058 331.089H280.514L277.546 338.635H276.314ZM283.897 338.803C283.402 338.803 282.964 338.714 282.581 338.537C282.208 338.35 281.914 338.098 281.699 337.781C281.484 337.454 281.377 337.081 281.377 336.661C281.377 336.259 281.461 335.9 281.629 335.583C281.806 335.256 282.077 334.981 282.441 334.757C282.814 334.533 283.281 334.374 283.841 334.281L286.641 333.819V334.911L284.135 335.331C283.65 335.415 283.295 335.569 283.071 335.793C282.856 336.017 282.749 336.292 282.749 336.619C282.749 336.927 282.87 337.183 283.113 337.389C283.365 337.594 283.678 337.697 284.051 337.697C284.527 337.697 284.938 337.599 285.283 337.403C285.638 337.197 285.913 336.922 286.109 336.577C286.314 336.231 286.417 335.849 286.417 335.429V333.511C286.417 333.1 286.263 332.769 285.955 332.517C285.656 332.255 285.26 332.125 284.765 332.125C284.336 332.125 283.953 332.237 283.617 332.461C283.29 332.675 283.048 332.965 282.889 333.329L281.755 332.741C281.895 332.395 282.119 332.087 282.427 331.817C282.735 331.537 283.094 331.317 283.505 331.159C283.916 331 284.345 330.921 284.793 330.921C285.372 330.921 285.88 331.033 286.319 331.257C286.758 331.471 287.098 331.775 287.341 332.167C287.593 332.549 287.719 332.997 287.719 333.511V338.635H286.445V337.207L286.683 337.291C286.524 337.589 286.31 337.851 286.039 338.075C285.768 338.299 285.451 338.476 285.087 338.607C284.723 338.737 284.326 338.803 283.897 338.803ZM290.018 338.635V331.089H291.32V338.635H290.018ZM290.018 329.885V328.205H291.32V329.885H290.018ZM293.62 338.635V328.037H294.922V338.635H293.62ZM299.434 338.803C298.94 338.803 298.501 338.714 298.118 338.537C297.745 338.35 297.451 338.098 297.236 337.781C297.022 337.454 296.914 337.081 296.914 336.661C296.914 336.259 296.998 335.9 297.166 335.583C297.344 335.256 297.614 334.981 297.978 334.757C298.352 334.533 298.818 334.374 299.378 334.281L302.178 333.819V334.911L299.672 335.331C299.187 335.415 298.832 335.569 298.608 335.793C298.394 336.017 298.286 336.292 298.286 336.619C298.286 336.927 298.408 337.183 298.65 337.389C298.902 337.594 299.215 337.697 299.588 337.697C300.064 337.697 300.475 337.599 300.82 337.403C301.175 337.197 301.45 336.922 301.646 336.577C301.852 336.231 301.954 335.849 301.954 335.429V333.511C301.954 333.1 301.8 332.769 301.492 332.517C301.194 332.255 300.797 332.125 300.302 332.125C299.873 332.125 299.49 332.237 299.154 332.461C298.828 332.675 298.585 332.965 298.426 333.329L297.292 332.741C297.432 332.395 297.656 332.087 297.964 331.817C298.272 331.537 298.632 331.317 299.042 331.159C299.453 331 299.882 330.921 300.33 330.921C300.909 330.921 301.418 331.033 301.856 331.257C302.295 331.471 302.636 331.775 302.878 332.167C303.13 332.549 303.256 332.997 303.256 333.511V338.635H301.982V337.207L302.22 337.291C302.062 337.589 301.847 337.851 301.576 338.075C301.306 338.299 300.988 338.476 300.624 338.607C300.26 338.737 299.864 338.803 299.434 338.803ZM309.461 338.803C308.854 338.803 308.299 338.667 307.795 338.397C307.3 338.126 306.918 337.743 306.647 337.249L306.829 337.025V338.635H305.555V328.037H306.857V332.713L306.661 332.391C306.941 331.943 307.324 331.588 307.809 331.327C308.294 331.056 308.85 330.921 309.475 330.921C310.184 330.921 310.819 331.093 311.379 331.439C311.948 331.784 312.396 332.255 312.723 332.853C313.05 333.441 313.213 334.113 313.213 334.869C313.213 335.606 313.05 336.273 312.723 336.871C312.396 337.468 311.948 337.939 311.379 338.285C310.819 338.63 310.18 338.803 309.461 338.803ZM309.363 337.543C309.839 337.543 310.264 337.426 310.637 337.193C311.01 336.959 311.3 336.642 311.505 336.241C311.72 335.83 311.827 335.373 311.827 334.869C311.827 334.346 311.72 333.889 311.505 333.497C311.3 333.095 311.01 332.778 310.637 332.545C310.264 332.302 309.839 332.181 309.363 332.181C308.887 332.181 308.458 332.297 308.075 332.531C307.702 332.764 307.403 333.086 307.179 333.497C306.964 333.898 306.857 334.355 306.857 334.869C306.857 335.373 306.964 335.83 307.179 336.241C307.403 336.642 307.702 336.959 308.075 337.193C308.458 337.426 308.887 337.543 309.363 337.543ZM315.2 338.635V328.037H316.502V338.635H315.2ZM322.275 338.803C321.547 338.803 320.898 338.63 320.329 338.285C319.759 337.939 319.311 337.468 318.985 336.871C318.658 336.264 318.495 335.587 318.495 334.841C318.495 334.085 318.653 333.413 318.971 332.825C319.297 332.237 319.736 331.775 320.287 331.439C320.847 331.093 321.472 330.921 322.163 330.921C322.723 330.921 323.217 331.023 323.647 331.229C324.085 331.425 324.454 331.695 324.753 332.041C325.061 332.377 325.294 332.764 325.453 333.203C325.621 333.632 325.705 334.08 325.705 334.547C325.705 334.649 325.695 334.766 325.677 334.897C325.667 335.018 325.653 335.135 325.635 335.247H319.447V334.127H324.879L324.263 334.631C324.347 334.145 324.3 333.711 324.123 333.329C323.945 332.946 323.684 332.643 323.339 332.419C322.993 332.195 322.601 332.083 322.163 332.083C321.724 332.083 321.323 332.195 320.959 332.419C320.595 332.643 320.31 332.965 320.105 333.385C319.909 333.795 319.829 334.285 319.867 334.855C319.829 335.405 319.913 335.891 320.119 336.311C320.333 336.721 320.632 337.043 321.015 337.277C321.407 337.501 321.831 337.613 322.289 337.613C322.793 337.613 323.217 337.496 323.563 337.263C323.908 337.029 324.188 336.731 324.403 336.367L325.495 336.927C325.345 337.272 325.112 337.589 324.795 337.879C324.487 338.159 324.118 338.383 323.689 338.551C323.269 338.719 322.797 338.803 322.275 338.803ZM332.594 338.803C332.099 338.803 331.661 338.714 331.278 338.537C330.905 338.35 330.611 338.098 330.396 337.781C330.181 337.454 330.074 337.081 330.074 336.661C330.074 336.259 330.158 335.9 330.326 335.583C330.503 335.256 330.774 334.981 331.138 334.757C331.511 334.533 331.978 334.374 332.538 334.281L335.338 333.819V334.911L332.832 335.331C332.347 335.415 331.992 335.569 331.768 335.793C331.553 336.017 331.446 336.292 331.446 336.619C331.446 336.927 331.567 337.183 331.81 337.389C332.062 337.594 332.375 337.697 332.748 337.697C333.224 337.697 333.635 337.599 333.98 337.403C334.335 337.197 334.61 336.922 334.806 336.577C335.011 336.231 335.114 335.849 335.114 335.429V333.511C335.114 333.1 334.96 332.769 334.652 332.517C334.353 332.255 333.957 332.125 333.462 332.125C333.033 332.125 332.65 332.237 332.314 332.461C331.987 332.675 331.745 332.965 331.586 333.329L330.452 332.741C330.592 332.395 330.816 332.087 331.124 331.817C331.432 331.537 331.791 331.317 332.202 331.159C332.613 331 333.042 330.921 333.49 330.921C334.069 330.921 334.577 331.033 335.016 331.257C335.455 331.471 335.795 331.775 336.038 332.167C336.29 332.549 336.416 332.997 336.416 333.511V338.635H335.142V337.207L335.38 337.291C335.221 337.589 335.007 337.851 334.736 338.075C334.465 338.299 334.148 338.476 333.784 338.607C333.42 338.737 333.023 338.803 332.594 338.803ZM338.715 338.635V331.089H339.989V332.559L339.779 332.433C339.966 331.957 340.264 331.588 340.675 331.327C341.095 331.056 341.585 330.921 342.145 330.921C342.686 330.921 343.167 331.042 343.587 331.285C344.016 331.527 344.352 331.863 344.595 332.293C344.847 332.722 344.973 333.207 344.973 333.749V338.635H343.657V334.169C343.657 333.749 343.582 333.394 343.433 333.105C343.284 332.815 343.069 332.591 342.789 332.433C342.518 332.265 342.206 332.181 341.851 332.181C341.496 332.181 341.179 332.265 340.899 332.433C340.628 332.591 340.414 332.82 340.255 333.119C340.096 333.408 340.017 333.758 340.017 334.169V338.635H338.715ZM347.385 341.715C347.217 341.715 347.049 341.701 346.881 341.673C346.713 341.645 346.555 341.598 346.405 341.533V340.371C346.508 340.389 346.634 340.408 346.783 340.427C346.942 340.455 347.096 340.469 347.245 340.469C347.684 340.469 348.015 340.371 348.239 340.175C348.473 339.988 348.692 339.661 348.897 339.195L349.373 338.061L349.345 339.195L346.125 331.089H347.539L350.045 337.529H349.625L352.117 331.089H353.559L350.157 339.531C349.999 339.932 349.793 340.296 349.541 340.623C349.299 340.959 349 341.225 348.645 341.421C348.291 341.617 347.871 341.715 347.385 341.715ZM354.998 338.635V331.089H356.272V332.629L356.09 332.391C356.276 331.915 356.575 331.551 356.986 331.299C357.396 331.047 357.858 330.921 358.372 330.921C358.96 330.921 359.487 331.084 359.954 331.411C360.43 331.737 360.756 332.167 360.934 332.699L360.57 332.713C360.766 332.125 361.097 331.681 361.564 331.383C362.03 331.075 362.548 330.921 363.118 330.921C363.64 330.921 364.112 331.042 364.532 331.285C364.961 331.527 365.302 331.863 365.554 332.293C365.806 332.722 365.932 333.207 365.932 333.749V338.635H364.616V334.169C364.616 333.749 364.541 333.394 364.392 333.105C364.242 332.815 364.037 332.591 363.776 332.433C363.524 332.265 363.225 332.181 362.88 332.181C362.544 332.181 362.24 332.265 361.97 332.433C361.708 332.591 361.498 332.82 361.34 333.119C361.19 333.408 361.116 333.758 361.116 334.169V338.635H359.8V334.169C359.8 333.749 359.725 333.394 359.576 333.105C359.426 332.815 359.221 332.591 358.96 332.433C358.708 332.265 358.409 332.181 358.064 332.181C357.728 332.181 357.424 332.265 357.154 332.433C356.892 332.591 356.682 332.82 356.524 333.119C356.374 333.408 356.3 333.758 356.3 334.169V338.635H354.998ZM371.645 338.803C370.917 338.803 370.259 338.635 369.671 338.299C369.083 337.953 368.616 337.482 368.271 336.885C367.925 336.287 367.753 335.611 367.753 334.855C367.753 334.099 367.921 333.427 368.257 332.839C368.602 332.251 369.069 331.784 369.657 331.439C370.245 331.093 370.907 330.921 371.645 330.921C372.373 330.921 373.031 331.093 373.619 331.439C374.207 331.775 374.669 332.237 375.005 332.825C375.35 333.413 375.523 334.089 375.523 334.855C375.523 335.62 375.345 336.301 374.991 336.899C374.636 337.487 374.165 337.953 373.577 338.299C372.998 338.635 372.354 338.803 371.645 338.803ZM371.645 337.543C372.111 337.543 372.531 337.426 372.905 337.193C373.287 336.959 373.586 336.637 373.801 336.227C374.025 335.816 374.137 335.359 374.137 334.855C374.137 334.341 374.025 333.889 373.801 333.497C373.586 333.095 373.287 332.778 372.905 332.545C372.531 332.302 372.111 332.181 371.645 332.181C371.169 332.181 370.739 332.302 370.357 332.545C369.983 332.778 369.685 333.095 369.461 333.497C369.237 333.889 369.125 334.341 369.125 334.855C369.125 335.359 369.237 335.816 369.461 336.227C369.685 336.637 369.983 336.959 370.357 337.193C370.739 337.426 371.169 337.543 371.645 337.543ZM377.501 338.635V331.089H378.775V332.475L378.635 332.279C378.812 331.849 379.083 331.532 379.447 331.327C379.811 331.112 380.254 331.005 380.777 331.005H381.239V332.237H380.581C380.049 332.237 379.62 332.405 379.293 332.741C378.966 333.067 378.803 333.534 378.803 334.141V338.635H377.501ZM386.147 338.803C385.419 338.803 384.771 338.63 384.201 338.285C383.632 337.939 383.184 337.468 382.857 336.871C382.531 336.264 382.367 335.587 382.367 334.841C382.367 334.085 382.526 333.413 382.843 332.825C383.17 332.237 383.609 331.775 384.159 331.439C384.719 331.093 385.345 330.921 386.035 330.921C386.595 330.921 387.09 331.023 387.519 331.229C387.958 331.425 388.327 331.695 388.625 332.041C388.933 332.377 389.167 332.764 389.325 333.203C389.493 333.632 389.577 334.08 389.577 334.547C389.577 334.649 389.568 334.766 389.549 334.897C389.54 335.018 389.526 335.135 389.507 335.247H383.319V334.127H388.751L388.135 334.631C388.219 334.145 388.173 333.711 387.995 333.329C387.818 332.946 387.557 332.643 387.211 332.419C386.866 332.195 386.474 332.083 386.035 332.083C385.597 332.083 385.195 332.195 384.831 332.419C384.467 332.643 384.183 332.965 383.977 333.385C383.781 333.795 383.702 334.285 383.739 334.855C383.702 335.405 383.786 335.891 383.991 336.311C384.206 336.721 384.505 337.043 384.887 337.277C385.279 337.501 385.704 337.613 386.161 337.613C386.665 337.613 387.09 337.496 387.435 337.263C387.781 337.029 388.061 336.731 388.275 336.367L389.367 336.927C389.218 337.272 388.985 337.589 388.667 337.879C388.359 338.159 387.991 338.383 387.561 338.551C387.141 338.719 386.67 338.803 386.147 338.803ZM392.087 338.635V336.955H393.445V338.635H392.087Z" fill="#687485"/>
</svg>
