<svg width="200" height="200" viewBox="0 0 200 200" fill="none" xmlns="http://www.w3.org/2000/svg">
<g clip-path="url(#clip0_38_1112)">
<path d="M0 100C0 44.7715 44.7715 0 100 0C155.228 0 200 44.7715 200 100C200 155.228 155.228 200 100 200C44.7715 200 0 155.228 0 100Z" fill="url(#paint0_linear_38_1112)"/>
<path d="M82.1953 139.25C87.9689 129.65 101.224 111.248 132.787 85.3921C180.413 46.3755 135.463 10.6882 87.1738 29.6951C82.0081 31.7286 67.6933 23.5881 54.4333 32.1642C45.8795 37.6965 49.2084 42.0321 45.8778 46.3677C42.5472 50.7034 29.7066 50.4482 26.8936 61.7062C25.2276 68.3761 29.8379 75.3625 29.2213 80.3827C28.6046 85.4029 23.7377 89.9281 23.5055 96.5554C23.405 99.3546 23.8569 102.146 24.8354 104.771C25.8139 107.395 27.2998 109.801 29.2083 111.851C31.1168 113.901 33.4105 115.555 35.9584 116.719C38.5062 117.882 41.2583 118.533 44.0575 118.632C44.0804 124.166 46.2411 129.477 50.0881 133.455C53.9351 137.433 59.1706 139.77 64.7005 139.978C68.2464 140.107 71.7681 139.344 74.9425 137.759C78.0922 140.662 80.7962 141.575 82.1953 139.25Z" fill="#130023"/>
<path d="M94 27.3334C85.7893 32.6001 75.6313 49.8734 80.09 73.0608C81.0627 78.1201 78.0233 79.6348 75.4233 73.3941C67.5787 54.5668 66.6693 37.5874 80.09 29.4654C82.4233 28.0608 83.7567 29.1988 85.4233 29.0608C88.5933 28.7981 92.8613 26.5521 94 27.3334Z" fill="#3A74CA"/>
<path d="M83.3333 129.333C83.3333 123.333 83.1293 93.7388 83.1393 93.2388C66.6667 95.6668 67 64.3334 83.6667 72.0001C87.3333 74.3334 97.6667 72.0001 96.6667 52.6667C114.667 72.0001 135.565 49.4507 137.357 67.8254C139.804 92.9154 137.342 119.173 121.749 119.175C120.044 119.154 118.343 118.984 116.667 118.667V129.333C116.667 136 128.667 139.333 128.667 139.333C128.667 139.333 107.939 158.867 99.3333 158.759C90.728 158.651 71.3333 139.333 71.3333 139.333C71.3333 139.333 83.3333 136 83.3333 129.333Z" fill="url(#paint1_linear_38_1112)"/>
<g style="mix-blend-mode:multiply">
<path d="M116.666 118.663C108.396 116.829 100.558 113.411 93.587 108.597C93.587 108.597 99.3391 122.659 116.645 125.328L116.666 118.663Z" fill="#FFDBC9"/>
</g>
<path d="M161.333 159.333C166.17 170.081 168.667 202.667 168.667 202.667H31.3333C31.3333 202.667 33.83 170.081 38.6667 159.333C42.904 149.918 70.826 139.107 79.0087 136C83.7333 141.285 90.504 144.667 100 144.667C109.496 144.667 116.267 141.285 120.991 136C129.174 139.107 157.096 149.918 161.333 159.333Z" fill="#192944"/>
</g>
<defs>
<linearGradient id="paint0_linear_38_1112" x1="100" y1="0" x2="100" y2="200" gradientUnits="userSpaceOnUse">
<stop stop-color="#50E0FF"/>
<stop offset="1" stop-color="#084298"/>
</linearGradient>
<linearGradient id="paint1_linear_38_1112" x1="104.573" y1="52.6667" x2="104.573" y2="158.759" gradientUnits="userSpaceOnUse">
<stop stop-color="#FFE0CC"/>
<stop offset="1" stop-color="#FFEADB"/>
</linearGradient>
<clipPath id="clip0_38_1112">
<path d="M0 100C0 44.7715 44.7715 0 100 0C155.228 0 200 44.7715 200 100C200 155.228 155.228 200 100 200C44.7715 200 0 155.228 0 100Z" fill="white"/>
</clipPath>
</defs>
</svg>
